<svg width="89" height="88" viewBox="0 0 89 88" fill="none" xmlns="http://www.w3.org/2000/svg">
<g clip-path="url(#clip0)">
<rect x="0.5" width="88" height="88" rx="44" fill="#FFAB2F"/>
<path d="M53.3408 30.1443C53.2499 30.075 52.4081 29.4485 50.9087 28.8458C48.977 28.0691 46.7605 27.6586 44.499 27.6586C42.2375 27.6586 40.0211 28.0691 38.0892 28.8458C36.5899 29.4485 35.7481 30.075 35.6571 30.1444C35.2006 30.4927 34.9326 31.0342 34.9326 31.6086V34.4973L36.7731 35.4821L38.6136 34.4973V32.6512C39.6237 32.1355 41.6437 31.3409 44.4989 31.3409C47.3542 31.3409 49.3741 32.1355 50.3841 32.6512V34.4972L52.2246 35.482L54.0652 34.4972V31.6086C54.0654 31.0341 53.7974 30.4926 53.3408 30.1443Z" fill="#078B94"/>
<path d="M34.9326 34.4973V36.5303L36.7732 37.5151L38.6137 36.5303V34.4973H34.9326Z" fill="#2FB9C2"/>
<path d="M54.0652 34.4973H50.3842V36.5303L52.2247 37.5151L54.0652 36.5303V34.4973Z" fill="#2FB9C2"/>
<path d="M17.9492 56.7855V73.1426C17.9492 75.0845 19.5228 76.6586 21.4639 76.6586H67.5368C69.4779 76.6586 71.0514 75.0845 71.0514 73.1426V56.7855H17.9492Z" fill="#B71032"/>
<path d="M17.9492 54.7525V56.7856C20.8691 59.1048 28.5862 63.607 44.5003 63.607C60.4145 63.607 68.1316 59.1048 71.0514 56.7854V54.7523H17.9492V54.7525Z" fill="#B71032"/>
<path d="M17.7963 53.5815C20.5947 55.8607 28.301 60.5256 44.5 60.5256C60.699 60.5256 68.4052 55.8607 71.2037 53.5815C72.024 52.9134 72.5 50.9275 72.5 49.8693V40.0463C72.5 38.1045 70.9264 36.5303 68.9853 36.5303H20.0147C18.0736 36.5303 16.5 38.1045 16.5 40.0463V49.8693C16.5 50.9275 16.976 52.9134 17.7963 53.5815Z" fill="#CD1B3F"/>
<path d="M71.2037 52.5967C68.4053 54.8759 60.699 59.5408 44.5 59.5408C28.301 59.5408 20.5948 54.8758 17.7963 52.5967C16.976 51.9286 16.5 50.9274 16.5 49.8693V51.9024C16.5 52.9605 16.976 53.9617 17.7963 54.6298C20.5947 56.909 28.301 61.5739 44.5 61.5739C60.699 61.5739 68.4052 56.909 71.2037 54.6298C72.024 53.9617 72.5 52.9605 72.5 51.9024V49.8693C72.5 50.9274 72.024 51.9286 71.2037 52.5967Z" fill="#CD1B3F"/>
<path d="M44.5 64.9575C46.3182 64.9575 47.7921 63.6069 47.7921 60.6793V58.6824C47.7921 58.0351 47.2676 57.5105 46.6206 57.5105H42.3793C41.7322 57.5105 41.2078 58.0352 41.2078 58.6824V60.6796C41.2077 63.6069 42.6817 64.9575 44.5 64.9575Z" fill="#2FB9C2"/>
<path d="M21.4406 29.5671L25.5174 31.5703L24.7388 27.3275L28.0371 24.3226L23.4791 23.7036L21.4406 19.8433L19.4022 23.7036L14.8442 24.3226L18.1425 27.3275L17.3639 31.5703L21.4406 29.5671Z" fill="white"/>
<path d="M66.9876 29.5671L70.884 31.5703L70.1399 27.3275L73.2923 24.3226L68.9358 23.7036L66.9876 19.8433L65.0392 23.7036L60.6826 24.3226L63.8351 27.3275L63.0909 31.5703L66.9876 29.5671Z" fill="white"/>
<path d="M44.5007 18.6456L48.8377 20.9565L48.0094 16.0619L51.5179 12.5957L46.6691 11.8815L44.5007 7.42828L42.3323 11.8815L37.4834 12.5957L40.9919 16.0619L40.1637 20.9565L44.5007 18.6456Z" fill="white"/>
</g>
<defs>
<clipPath id="clip0">
<rect x="0.5" width="88" height="88" rx="44" fill="white"/>
</clipPath>
</defs>
</svg>
